<svg width="110" height="110" viewBox="0 0 110 110" fill="none" xmlns="http://www.w3.org/2000/svg">
<path d="M87.8746 35.7074L89.16 36.9928L101.592 62.3389L71.4576 92.4737L57.6062 105.432L40.8132 93.7789L37.3616 90.3272L20.619 72.0405C16.6548 65.4681 14.9094 57.9355 15.3798 50.5163L87.8746 35.7074Z" fill="#FFCD6C"/>
<path d="M79.352 27.186L87.8739 35.7079L69.9185 67.2877L73.3115 40.0647L79.352 27.186Z" fill="#FDE8D8"/>
<path d="M78.7547 26.5888L79.3516 27.1857L69.9181 67.2876L61.9587 31.0844L65.0522 17.8885C70.0576 19.6823 74.7484 22.5825 78.7547 26.5888Z" fill="#445CEF"/>
<path d="M65.0529 17.8881L69.919 67.2882L43.6143 31.2568L43.4443 16.8141C50.25 15.1134 57.4947 15.3787 64.1561 17.5789C64.4563 17.6782 64.7553 17.7813 65.0529 17.8881Z" fill="#4AD3F0"/>
<path d="M43.4442 16.814L69.9189 67.2881L31.0733 42.4158L23.7855 29.2322C24.5122 28.3497 25.2843 27.4999 26.105 26.6726L26.2705 26.5071C31.1947 21.6152 37.1508 18.3778 43.4442 16.814Z" fill="#FDE8D8"/>
<path d="M69.9188 67.2881L69.5815 67.9498L69.2668 67.8492L69.2636 67.8461L68.6798 67.6579L68.6603 67.6514L68.6571 67.6482L15.38 50.5164C15.38 50.4841 15.38 50.4581 15.3832 50.4289C15.8796 42.8606 18.6791 35.4154 23.7853 29.2323L69.9188 67.2881Z" fill="#FF595E"/>
<path d="M69.2656 67.8496L69.2624 67.8464L37.3613 90.327L26.1891 79.1548C24.1227 77.0885 22.3514 74.8436 20.8787 72.4625C20.7878 72.3263 20.7035 72.1834 20.6191 72.0407L68.6557 67.6483L68.6589 67.6515L69.6808 67.5574L69.2656 67.8496Z" fill="#445CEF"/>
<path d="M66.1134 30.4519C66.7752 31.7754 73.6494 51.0742 75.8845 54.1399C77.2782 56.0501 83.7795 63.6463 88.4871 69.1033C90.0473 70.9118 91.2031 71.0832 92.118 72.1369L87.2808 78.5835L83.9945 81.8698C83.9945 81.8698 73.1882 90.2575 72.5061 89.5923C70.4401 87.5776 67.788 85.5329 65.1175 84.955C59.4014 83.7093 36.4595 84.4554 35.548 82.5512C34.6365 80.647 36.956 76.5043 39.5253 75.7583C42.0913 75.0154 54.7626 75.9238 54.6003 73.9384C54.4349 71.9498 48.6377 67.4764 44.2453 65.238C39.8561 63.0028 23.1233 54.5554 24.0349 51.1588C24.9464 47.7623 27.1005 46.7697 29.5855 47.931C32.0705 49.0859 50.0424 59.9405 50.4576 58.6947C50.8729 57.4555 30.0006 39.2304 30.6625 37.245C31.3274 35.2564 33.8936 32.3595 35.3014 32.9371C36.7061 33.5178 55.0966 52.57 55.6741 51.6552C56.2547 50.7436 44.3264 29.0442 45.4878 27.7206C46.6459 26.3938 49.2185 24.8205 50.542 25.9819C51.8655 27.1368 63.2944 49.3359 64.1249 48.8427C64.9554 48.3432 59.1549 31.6103 60.975 30.4522C62.8012 29.2939 65.4484 29.1251 66.1134 30.4519Z" fill="#7B6FE6"/>
<path d="M79.3892 76.2016C79.1784 76.4384 78.961 76.6688 78.7372 76.8926C77.2547 78.3946 75.5354 79.7506 73.5111 80.3344C72.1226 80.7366 70.6499 80.7561 69.2064 80.6686C67.8957 80.5907 66.5658 80.422 65.3493 79.9192C63.2764 79.0595 61.7161 77.298 60.4412 75.4523C58.5467 72.7079 57.0837 69.3828 57.6968 66.1097C57.9597 64.7115 58.5921 63.4171 59.4226 62.2752C60.2563 61.1365 61.1613 60.1083 62.1541 59.2583C62.3649 59.0799 62.5758 58.908 62.7932 58.7491L69.755 62.9404C69.7549 62.9405 81.0468 74.3559 79.3892 76.2016Z" fill="#445CEF"/>
<path d="M77.6083 61.3995C77.8971 61.8634 78.1858 62.3273 78.5134 62.7588C79.3698 63.8812 80.5052 64.7895 81.2871 65.9671C82.0138 67.0635 82.403 68.3741 82.3997 69.6878C82.39 72.1371 81.047 74.356 79.3894 76.2017C78.121 77.3469 76.6872 78.3135 75.0554 78.7904C73.6702 79.1893 72.1974 79.2088 70.754 79.1212C69.4402 79.0465 68.1101 78.878 66.897 78.3718C64.8241 77.5121 63.2605 75.754 61.9857 73.9081C60.0912 71.1638 58.6282 67.8387 59.2445 64.5623C59.5041 63.1675 60.1398 61.8698 60.9703 60.7279C61.3499 60.2121 61.7424 59.7157 62.1543 59.2584C62.3652 59.08 62.576 58.9081 62.7934 58.7492L69.329 62.7735L77.6083 61.3995Z" fill="#00020A"/>
<path d="M76.2753 59.5602C76.3271 59.6057 76.3758 59.6608 76.4246 59.7159C76.4376 59.7289 76.4506 59.7482 76.4635 59.7612C76.9015 60.2641 77.2551 60.8318 77.6086 61.3995C77.3232 62.7814 76.6386 64.0952 75.5648 65.169C75.3865 65.3473 75.2015 65.5129 75.0102 65.6653C74.9647 65.7108 74.9194 65.7497 74.8706 65.7789C73.5568 66.8137 71.9771 67.3424 70.3843 67.3717C70.326 67.3717 70.2642 67.3748 70.2058 67.375C69.6835 67.3718 69.1613 67.3165 68.6455 67.203C68.5904 67.1868 68.5352 67.177 68.4866 67.1607C67.1825 66.8493 65.9401 66.1843 64.9247 65.169C64.6749 64.9192 64.4511 64.6565 64.2435 64.3839C64.1754 64.2964 64.1105 64.2119 64.0522 64.1147C62.9427 62.5187 62.5243 60.5884 62.7935 58.7491C62.8324 58.7166 62.8746 58.6809 62.92 58.655C62.9621 58.6192 63.0075 58.5868 63.0595 58.5544C63.7568 58.0516 64.5064 57.6396 65.301 57.3379C65.5118 57.2567 65.7259 57.1854 65.9401 57.1205C67.2506 56.7247 68.6973 56.6145 70.2837 56.8772C70.8643 56.9713 71.4516 57.0913 72.0257 57.2502C72.0808 57.26 72.1359 57.2762 72.1911 57.2924C72.8756 57.4837 73.5438 57.7303 74.1667 58.0418C74.225 58.0677 74.2867 58.0969 74.3385 58.1294C75.0587 58.4994 75.7172 58.9698 76.2753 59.5602Z" fill="#FFC4D5"/>
<path d="M75.4936 59.6413C75.218 59.7483 74.9518 59.956 74.6924 60.261C73.6964 61.4385 73.5051 63.213 74.2187 64.582C74.2966 64.7248 74.3874 64.8739 74.4717 65.0167C74.6209 65.2698 74.7702 65.5227 74.8706 65.779C74.9194 65.7498 74.9647 65.7109 75.0101 65.6654C74.9063 65.419 74.7668 65.1756 74.6207 64.9323C74.5363 64.7896 74.4522 64.6469 74.3743 64.5041C73.6865 63.1935 73.8714 61.497 74.822 60.3712C75.0686 60.0793 75.3085 59.8977 75.5551 59.8003C75.847 59.6899 76.1488 59.6997 76.4634 59.7614C76.4504 59.7485 76.4375 59.7291 76.4245 59.7161C76.3757 59.661 76.3272 59.6059 76.2752 59.5604C76.0126 59.5309 75.7531 59.544 75.4936 59.6413ZM74.1668 58.042C73.7937 58.2919 73.4142 58.5286 73.0379 58.7557C72.3955 59.1449 71.7403 59.5537 71.1401 60.0241C69.5862 61.2536 68.8012 62.8366 69.0412 64.2639C69.1321 64.796 69.3559 65.2988 69.5765 65.7789C69.6934 66.019 69.81 66.2654 69.9041 66.5283C69.956 66.6645 70.008 66.8137 70.0631 66.9597C70.1084 67.0959 70.1539 67.2323 70.2058 67.3748C70.2641 67.3748 70.3258 67.3717 70.3843 67.3715C70.3258 67.2159 70.2772 67.0633 70.222 66.9108C70.17 66.7616 70.1214 66.6091 70.063 66.4664C69.9689 66.2036 69.8456 65.9506 69.7385 65.7073C69.5146 65.237 69.2973 64.7472 69.2065 64.2346C68.9794 62.8656 69.7352 61.3442 71.2469 60.1569C71.8308 59.6898 72.4893 59.2907 73.1251 58.9014C73.5274 58.655 73.936 58.4019 74.3384 58.1293C74.2868 58.0971 74.2252 58.0679 74.1668 58.042ZM72.0258 57.2504C71.8765 57.484 71.6885 57.6787 71.4743 57.8149C71.0494 58.084 70.5206 58.1329 70.0049 58.1814C69.4403 58.2398 68.85 58.2917 68.383 58.6355C67.838 59.0443 67.5525 59.7904 67.6239 60.6467C67.666 61.221 67.8542 61.7725 68.0325 62.3011C68.0779 62.4568 68.1267 62.6028 68.1817 62.7487C68.6684 64.2994 68.7591 65.8305 68.4867 67.1605C68.5353 67.1768 68.5906 67.1865 68.6456 67.2027C68.931 65.8404 68.8304 64.2799 68.3374 62.6969C68.2886 62.5509 68.24 62.3984 68.1881 62.2492C68.0096 61.727 67.8314 61.1852 67.7923 60.6336C67.7372 60.014 67.8962 59.2063 68.4833 58.7748C68.9114 58.4569 69.4565 58.405 70.0274 58.3465C70.5563 58.2979 71.1077 58.246 71.5651 57.9637C71.8148 57.8047 72.029 57.5778 72.1912 57.2921C72.1361 57.2764 72.0809 57.2602 72.0258 57.2504ZM65.301 57.338C64.9798 57.5683 64.6814 57.8214 64.4478 58.1459C63.8283 59.0185 63.8087 60.1798 63.8509 61.2211C63.7212 60.7281 63.5687 60.2382 63.4194 59.7515C63.2962 59.3623 63.1695 58.9568 63.0593 58.5545C63.0073 58.5869 62.962 58.6194 62.9197 58.6551C63.0236 59.0444 63.1435 59.4304 63.2604 59.8067C63.4972 60.5756 63.7406 61.3572 63.8994 62.1584C63.9351 62.8105 63.9837 63.4625 64.0519 64.1145C64.1103 64.2118 64.1753 64.2962 64.2433 64.3838C64.2368 64.3579 64.2401 64.3287 64.2368 64.306C64.2563 64.1047 64.2563 63.8972 64.2563 63.6961C64.2434 63.1771 64.1719 62.6516 64.0649 62.1358C64.0519 61.8504 64.0421 61.5745 64.0227 61.2956C63.9805 60.2154 63.9772 59.0962 64.5871 58.2462C64.9343 57.7692 65.4371 57.4352 65.9398 57.1206C65.7259 57.1855 65.5119 57.2569 65.301 57.338Z" fill="#FDE8D8"/>
<path d="M66.4431 77.7188C68.2727 75.8891 68.2727 72.9226 66.4431 71.0929C64.6134 69.2632 61.6468 69.2633 59.8172 71.0929C57.9875 72.9226 57.9875 75.8891 59.8172 77.7188C61.6468 79.5485 64.6134 79.5485 66.4431 77.7188Z" fill="#FFCD6C"/>
<path d="M76.7822 72.1802L75.3472 74.2403L76.7821 76.3005C76.8308 76.3705 76.7456 76.4557 76.6755 76.4071L74.6154 74.9721L72.5553 76.4071C72.4852 76.4559 72.3999 76.3707 72.4488 76.3006L73.8837 74.2404L72.4487 72.1803C72.3999 72.1103 72.4852 72.0251 72.5553 72.0737L74.6155 73.5086L76.6757 72.0737C76.7457 72.0247 76.8309 72.1099 76.7822 72.1802Z" fill="#FDE8D8"/>
<path d="M63.5737 64.3692L62.5075 65.9L63.5737 67.4308C63.61 67.4829 63.5466 67.5463 63.4945 67.51L61.9637 66.4438L60.4329 67.5101C60.3808 67.5463 60.3175 67.4829 60.3538 67.431L61.42 65.9001L60.3538 64.3693C60.3176 64.3173 60.381 64.2539 60.433 64.2901L61.9638 65.3563L63.4947 64.2901C63.5467 64.2539 63.61 64.3171 63.5737 64.3692Z" fill="#FDE8D8"/>
<path d="M78.6354 66.5957L77.9661 67.5565L78.6354 68.5173C78.6582 68.55 78.6184 68.5898 78.5857 68.567L77.6249 67.8978L76.6641 68.567C76.6314 68.5898 76.5916 68.55 76.6144 68.5173L77.2835 67.5564L76.6142 66.5956C76.5915 66.5629 76.6312 66.5231 76.6639 66.5459L77.6248 67.2152L78.5857 66.546C78.6184 66.5232 78.6582 66.563 78.6354 66.5957Z" fill="#FDE8D8"/>
<path d="M69.5907 69.9334C69.9414 69.5828 69.9414 69.0142 69.5907 68.6635C69.2401 68.3128 68.6715 68.3128 68.3208 68.6635C67.9701 69.0142 67.9701 69.5828 68.3208 69.9334C68.6715 70.2841 69.2401 70.2841 69.5907 69.9334Z" fill="#FDE8D8"/>
<path d="M74.7536 69.0777C75.028 69.3522 75.028 69.7971 74.7536 70.0715C74.4792 70.3459 74.0342 70.3459 73.7598 70.0715C73.4854 69.7971 73.4854 69.3522 73.7598 69.0777C74.0343 68.8033 74.4792 68.8033 74.7536 69.0777Z" fill="#FDE8D8"/>
<path d="M71.1368 73.8816C71.4874 74.2323 71.4873 74.8008 71.1366 75.1515C70.786 75.5021 70.2175 75.5022 69.8668 75.1516C69.5161 74.8009 69.516 74.2324 69.8668 73.8816C70.2176 73.5308 70.7861 73.531 71.1368 73.8816Z" fill="#FDE8D8"/>
<path d="M48.7151 61.7556C48.6484 61.8223 48.5446 61.8432 48.4544 61.8004C48.34 61.7462 48.2911 61.6097 48.3452 61.4951C50.8827 56.1396 55.7683 52.3087 60.0785 48.9287C60.1783 48.8508 60.3223 48.868 60.4005 48.9679C60.4785 49.0672 60.4597 49.2073 60.3616 49.29C56.0907 52.6386 51.2502 56.4337 48.76 61.6917C48.7482 61.7158 48.7331 61.7375 48.7151 61.7556Z" fill="#00020A"/>
<path d="M89.1522 36.9861L109.015 56.8489L87.2805 78.5834C86.6772 76.371 88.1662 73.5454 91.0338 72.6956C88.9478 70.7005 86.9432 68.8515 85.3795 66.373C84.6107 65.1565 83.936 63.8395 83.7284 62.4122C83.43 60.3685 84.1695 58.2015 85.6618 56.7742C87.1507 55.3435 89.3469 54.6915 91.3777 55.0743C87.407 50.0851 86.7939 42.9193 89.1522 36.9861Z" fill="#00020A"/>
<path d="M83.8866 81.9775L56.4491 109.415L40.8131 93.7789C40.9721 93.7238 41.1278 93.6784 41.2835 93.6395C44.4723 92.8448 48.0991 94.311 49.8411 97.0977C49.1599 92.1863 53.0914 87.223 57.9802 86.3764C62.8688 85.5362 68.0365 88.5952 70.025 93.14C69.9829 89.2829 72.7824 85.919 76.0134 83.8168C77.431 82.8924 78.9848 82.13 80.649 81.8607C81.7261 81.6854 82.8258 81.7342 83.8866 81.9775Z" fill="#00020A"/>
<path d="M54.0312 21.9571L51.0017 18.1945L55.0573 20.7355L57.7204 17.4861L56.621 21.5661L59.8949 23.4717L56.1813 23.032L56.4011 27.1121L54.7886 23.4963L50.8062 25.1332L54.0312 21.9571Z" fill="#FDE8D8"/>
<path d="M88.408 50.0342L85.3785 46.2716L89.4341 48.8126L92.0971 45.5631L90.9977 49.6432L94.2716 51.549L90.5579 51.1092L90.7778 55.1892L89.1653 51.5734L85.183 53.2103L88.408 50.0342Z" fill="#FDE8D8"/>
<path d="M36.4153 67.8446L33.3858 64.082L37.4416 66.6229L40.1046 63.3734L39.0051 67.4536L42.279 69.3592L38.5654 68.9195L38.7852 72.9996L37.1728 69.3837L33.1905 71.0206L36.4153 67.8446Z" fill="#FDE8D8"/>
<path d="M24.3537 56.3912C25.177 57.2145 25.177 58.5495 24.3537 59.3728C23.5303 60.1961 22.1953 60.1961 21.372 59.3728C20.5486 58.5493 20.5487 57.2145 21.372 56.3912C22.1953 55.5676 23.5302 55.5677 24.3537 56.3912Z" fill="#FDE8D8"/>
<path d="M50.7613 83.1132C49.2347 81.0322 46.3101 80.5828 44.229 82.1094C42.1479 83.6361 41.6984 86.5606 43.225 88.6417C44.7516 90.7227 47.6762 91.1721 49.7573 89.6454C51.8384 88.1188 52.2879 85.1942 50.7613 83.1132Z" fill="#FF595E"/>
<path d="M77.1551 39.6128C75.1124 39.1796 73.8076 37.1723 74.241 35.1295C74.6743 33.0869 76.6816 31.782 78.7243 32.2154C80.767 32.6486 82.0718 34.656 81.6384 36.6987C81.205 38.7415 79.1979 40.0463 77.1551 39.6128Z" fill="#7B6FE6"/>
<path d="M39.8625 29.6422C41.3391 28.1657 41.3391 25.7717 39.8625 24.2951C38.386 22.8186 35.992 22.8186 34.5155 24.2951C33.0389 25.7717 33.0389 28.1657 34.5155 29.6422C35.992 31.1188 38.386 31.1188 39.8625 29.6422Z" fill="#445CEF"/>
</svg>
