<svg width="36" height="36" viewBox="0 0 36 36" fill="none" xmlns="http://www.w3.org/2000/svg">
<path d="M30.9724 33.75H21.9026C20.3715 33.75 19.125 32.5035 19.125 30.9724V19.6526C19.125 18.1215 20.3715 16.875 21.9026 16.875H30.9724C32.5035 16.875 33.75 18.1215 33.75 19.6526V30.9724C33.75 32.5035 32.5035 33.75 30.9724 33.75ZM21.9026 19.125C21.6112 19.125 21.375 19.3612 21.375 19.6526V30.9724C21.375 31.2638 21.6112 31.5 21.9026 31.5H30.9724C31.2638 31.5 31.5 31.2638 31.5 30.9724V19.6526C31.5 19.3612 31.2638 19.125 30.9724 19.125H21.9026Z" fill="url(#paint0_linear_2_341)"/>
<path d="M30.9724 14.625H21.9026C20.3715 14.625 19.125 13.3785 19.125 11.8474V5.02762C19.125 3.4965 20.3715 2.25 21.9026 2.25H30.9724C32.5035 2.25 33.75 3.4965 33.75 5.02762V11.8474C33.75 13.3785 32.5035 14.625 30.9724 14.625ZM21.9026 4.5C21.6112 4.5 21.375 4.73625 21.375 5.02762V11.8474C21.375 12.1388 21.6112 12.375 21.9026 12.375H30.9724C31.2638 12.375 31.5 12.1388 31.5 11.8474V5.02762C31.5 4.73625 31.2638 4.5 30.9724 4.5H21.9026Z" fill="url(#paint1_linear_2_341)"/>
<path d="M14.0974 19.125H5.02762C3.4965 19.125 2.25 17.8785 2.25 16.3474V5.02762C2.25 3.4965 3.4965 2.25 5.02762 2.25H14.0974C15.6285 2.25 16.875 3.4965 16.875 5.02762V16.3474C16.875 17.8785 15.6285 19.125 14.0974 19.125ZM5.02762 4.5C4.73625 4.5 4.5 4.73625 4.5 5.02762V16.3474C4.5 16.6388 4.73625 16.875 5.02762 16.875H14.0974C14.3888 16.875 14.625 16.6388 14.625 16.3474V5.02762C14.625 4.73625 14.3888 4.5 14.0974 4.5H5.02762Z" fill="url(#paint2_linear_2_341)"/>
<path d="M14.0974 33.75H5.02762C3.4965 33.75 2.25 32.5035 2.25 30.9724V24.1526C2.25 22.6215 3.4965 21.375 5.02762 21.375H14.0974C15.6285 21.375 16.875 22.6215 16.875 24.1526V30.9724C16.875 32.5035 15.6285 33.75 14.0974 33.75ZM5.02762 23.625C4.73625 23.625 4.5 23.8612 4.5 24.1526V30.9724C4.5 31.2638 4.73625 31.5 5.02762 31.5H14.0974C14.3888 31.5 14.625 31.2638 14.625 30.9724V24.1526C14.625 23.8612 14.3888 23.625 14.0974 23.625H5.02762Z" fill="url(#paint3_linear_2_341)"/>
<defs>
<linearGradient id="paint0_linear_2_341" x1="19.8815" y1="18" x2="35.7137" y2="21.3828" gradientUnits="userSpaceOnUse">
<stop stop-color="#6763FD"/>
<stop offset="1" stop-color="#B84EF1"/>
</linearGradient>
<linearGradient id="paint1_linear_2_341" x1="19.8815" y1="3.075" x2="35.1411" y2="7.52105" gradientUnits="userSpaceOnUse">
<stop stop-color="#6763FD"/>
<stop offset="1" stop-color="#B84EF1"/>
</linearGradient>
<linearGradient id="paint2_linear_2_341" x1="3.00647" y1="3.375" x2="18.8387" y2="6.75779" gradientUnits="userSpaceOnUse">
<stop stop-color="#6763FD"/>
<stop offset="1" stop-color="#B84EF1"/>
</linearGradient>
<linearGradient id="paint3_linear_2_341" x1="3.00647" y1="22.2" x2="18.2661" y2="26.6461" gradientUnits="userSpaceOnUse">
<stop stop-color="#6763FD"/>
<stop offset="1" stop-color="#B84EF1"/>
</linearGradient>
</defs>
</svg>
