<svg width="20" height="20" viewBox="0 0 20 20" fill="none" xmlns="http://www.w3.org/2000/svg">
<g clip-path="url(#clip0_2_1570)">
<path d="M10.2762 12.7563C10.2133 12.7862 10.1404 12.7862 10.0775 12.7563L5.77488 10.7094C5.57031 10.6121 5.36231 10.8365 5.47482 11.0331L9.97615 18.8995C10.065 19.0547 10.2888 19.0547 10.3776 18.8995L14.879 11.0331C14.9915 10.8365 14.7835 10.6121 14.579 10.7094L10.2762 12.7563ZM8.14372 13.5072C8.03121 13.3106 8.23921 13.0863 8.44378 13.1836L10.0775 13.9608C10.1404 13.9907 10.2133 13.9907 10.2762 13.9608L11.9101 13.1836C12.1146 13.0862 12.3226 13.3106 12.2101 13.5072L10.3776 16.7096C10.2888 16.8647 10.065 16.8647 9.97615 16.7095L8.14372 13.5072Z" fill="url(#paint0_linear_2_1570)"/>
<path d="M14.9244 9.32934C15.0058 9.29081 15.0369 9.19108 14.992 9.11308L10.3105 0.982019C10.2512 0.879028 10.1025 0.879029 10.0432 0.98202L5.36179 9.11309C5.31688 9.19109 5.34806 9.29081 5.4294 9.32934L10.1109 11.5468C10.1526 11.5666 10.2011 11.5666 10.2428 11.5468L14.9244 9.32934ZM10.0432 3.16185C10.1025 3.05885 10.2512 3.05885 10.3105 3.16184L12.7247 7.35498C12.8001 7.48593 12.6617 7.63592 12.5251 7.57124L10.2428 6.49021C10.2011 6.47043 10.1526 6.47043 10.1109 6.49021L7.82868 7.57123C7.69213 7.63591 7.55369 7.48593 7.62908 7.35498L10.0432 3.16185ZM10.1108 7.69375C10.1526 7.67396 10.2011 7.67396 10.2428 7.69375L12.7455 8.87926C12.8631 8.93495 12.8631 9.10223 12.7455 9.15792L10.2428 10.3433C10.2011 10.3631 10.1526 10.3631 10.1109 10.3433L7.60829 9.15792C7.49074 9.10223 7.49073 8.93495 7.60829 8.87926L10.1108 7.69375Z" fill="url(#paint1_linear_2_1570)"/>
</g>
<defs>
<linearGradient id="paint0_linear_2_1570" x1="5.63246" y1="10.9828" x2="16.2618" y2="13.9818" gradientUnits="userSpaceOnUse">
<stop stop-color="#6763FD"/>
<stop offset="1" stop-color="#B84EF1"/>
</linearGradient>
<linearGradient id="paint1_linear_2_1570" x1="5.78519" y1="1.47185" x2="16.3494" y2="3.82827" gradientUnits="userSpaceOnUse">
<stop stop-color="#6763FD"/>
<stop offset="1" stop-color="#B84EF1"/>
</linearGradient>
<clipPath id="clip0_2_1570">
<rect x="0.916664" y="0.749969" width="18.5" height="18.5" fill="white"/>
</clipPath>
</defs>
</svg>
