<svg width="37" height="36" viewBox="0 0 37 36" fill="none" xmlns="http://www.w3.org/2000/svg">
<path d="M18.5 12.375C15.3984 12.375 12.875 14.8984 12.875 18C12.875 21.1016 15.3984 23.625 18.5 23.625C21.6016 23.625 24.125 21.1016 24.125 18C24.125 14.8984 21.6016 12.375 18.5 12.375ZM18.5 21.375C16.6393 21.375 15.125 19.8608 15.125 18C15.125 16.1393 16.6393 14.625 18.5 14.625C20.3608 14.625 21.875 16.1393 21.875 18C21.875 19.8608 20.3608 21.375 18.5 21.375Z" fill="url(#paint0_linear_2_365)"/>
<path d="M31.4668 20.2905L30.8751 19.9485C30.1708 19.5424 29.7501 18.8134 29.7501 18C29.7501 17.1866 30.1708 16.4576 30.8751 16.0515L31.4668 15.7095C33.0823 14.7769 33.6347 12.7148 32.7021 11.0992L31.5771 9.15075C30.6467 7.53863 28.5778 6.98513 26.9668 7.9155L26.3751 8.25638C25.6708 8.66363 24.8282 8.66363 24.1251 8.25638C23.4208 7.84912 23.0001 7.12125 23.0001 6.30787V5.625C23.0001 3.76425 21.4858 2.25 19.6251 2.25H17.3751C15.5143 2.25 14.0001 3.76425 14.0001 5.625V6.309C14.0001 7.12237 13.5793 7.85025 12.8751 8.2575C12.1708 8.66363 11.3293 8.66475 10.6251 8.2575L10.0333 7.9155C8.42231 6.98513 6.35344 7.53863 5.42194 9.15075L4.29694 11.0992C3.36431 12.7148 3.91669 14.7769 5.53219 15.7095L6.12506 16.0515C6.82931 16.4576 7.25006 17.1866 7.25006 18C7.25006 18.8134 6.82931 19.5424 6.12506 19.9485L5.53331 20.2905C3.91781 21.2231 3.36544 23.2852 4.29806 24.9007L5.42306 26.8493C6.35456 28.4614 8.42344 29.0149 10.0333 28.0845L10.6251 27.7436C11.3293 27.3353 12.1708 27.3375 12.8751 27.7436C13.5793 28.1509 14.0001 28.8787 14.0001 29.6921V30.375C14.0001 32.2358 15.5143 33.75 17.3751 33.75H19.6251C21.4858 33.75 23.0001 32.2358 23.0001 30.375V29.691C23.0001 28.8776 23.4208 28.1497 24.1251 27.7425C24.8282 27.3364 25.6708 27.3352 26.3751 27.7425L26.9668 28.0845C28.5778 29.0138 30.6467 28.4602 31.5771 26.8493L32.7021 24.9007C33.6347 23.2852 33.0823 21.2231 31.4668 20.2905ZM30.7536 23.7757L29.6286 25.7243C29.3169 26.2665 28.6228 26.4454 28.0918 26.136L27.5001 25.794C26.0904 24.9806 24.4086 24.9806 23.0001 25.794C21.5916 26.6074 20.7501 28.0643 20.7501 29.691V30.375C20.7501 30.9949 20.2449 31.5 19.6251 31.5H17.3751C16.7552 31.5 16.2501 30.9949 16.2501 30.375V29.691C16.2501 28.0643 15.4086 26.6074 14.0001 25.794C12.5916 24.9806 10.9086 24.9806 9.50006 25.794L8.90831 26.136C8.37169 26.4487 7.68206 26.262 7.37156 25.7243L6.24656 23.7757C5.93156 23.2301 6.12731 22.545 6.65831 22.239L7.25006 21.897C8.65856 21.0836 9.50006 19.6267 9.50006 18C9.50006 16.3733 8.65856 14.9164 7.25006 14.103L6.65831 13.761C6.12844 13.4561 5.93156 12.7699 6.24656 12.2242L7.37156 10.2758C7.68769 9.72675 8.38519 9.56025 8.90831 9.864L9.50006 10.206C10.9097 11.0194 12.5916 11.0194 14.0001 10.206C15.4086 9.39262 16.2501 7.93575 16.2501 6.309V5.625C16.2501 5.00513 16.7552 4.5 17.3751 4.5H19.6251C20.2449 4.5 20.7501 5.00513 20.7501 5.625V6.309C20.7501 7.93575 21.5916 9.39262 23.0001 10.206C24.4086 11.0194 26.0916 11.0194 27.5001 10.206L28.0918 9.864C28.6239 9.55687 29.3147 9.73125 29.6286 10.2758L30.7536 12.2242C31.0686 12.7699 30.8728 13.455 30.3418 13.761L29.7501 14.103C28.3416 14.9164 27.5001 16.3733 27.5001 18C27.5001 19.6267 28.3416 21.0836 29.7501 21.897L30.3418 22.239C30.8728 22.545 31.0686 23.2301 30.7536 23.7757Z" fill="url(#paint1_linear_2_365)"/>
<defs>
<linearGradient id="paint0_linear_2_365" x1="13.4569" y1="13.125" x2="25.4619" y2="16.0847" gradientUnits="userSpaceOnUse">
<stop stop-color="#6763FD"/>
<stop offset="1" stop-color="#B84EF1"/>
</linearGradient>
<linearGradient id="paint1_linear_2_365" x1="5.35975" y1="4.35" x2="36.8808" y2="11.5812" gradientUnits="userSpaceOnUse">
<stop stop-color="#6763FD"/>
<stop offset="1" stop-color="#B84EF1"/>
</linearGradient>
</defs>
</svg>
