<svg width="24" height="24" viewBox="0 0 24 24" fill="none" xmlns="http://www.w3.org/2000/svg">
<path d="M19.78 3.5H4.22C3.63176 3.50174 3.06812 3.73438 2.65217 4.14709C2.23622 4.5598 2.00176 5.11906 2 5.70272V15.8432C2 16.428 2.23368 16.9889 2.64982 17.4031C3.06596 17.8172 3.63061 18.0508 4.22 18.0525H6L7.28 20.0369C7.36923 20.1797 7.49398 20.2973 7.64226 20.3784C7.79054 20.4595 7.95736 20.5014 8.12667 20.5C8.2985 20.4979 8.46697 20.4525 8.61625 20.368C8.76553 20.2835 8.8907 20.1628 8.98 20.0171L10.1933 18.0327H19.78C20.3659 18.0309 20.9276 17.8001 21.3432 17.3903C21.7587 16.9804 21.9947 16.4245 22 15.8432V5.70272C21.9982 5.11906 21.7638 4.5598 21.3478 4.14709C20.9319 3.73438 20.3682 3.50174 19.78 3.5ZM20.6667 15.8432C20.6667 16.0771 20.5735 16.3016 20.4074 16.4676C20.2413 16.6336 20.0158 16.7278 19.78 16.7295H10.0867C9.90162 16.7301 9.71982 16.7779 9.55872 16.8682C9.39762 16.9586 9.26262 17.0885 9.16667 17.2455L8.14667 18.9124L7.07333 17.2323C6.97731 17.0778 6.84287 16.9504 6.68292 16.8624C6.52298 16.7744 6.3429 16.7286 6.16 16.7295H4.22C3.98423 16.7278 3.75872 16.6336 3.59262 16.4676C3.42653 16.3016 3.33333 16.0771 3.33333 15.8432V5.70272C3.33508 5.46993 3.42905 5.24716 3.59496 5.08254C3.76087 4.91793 3.98538 4.82469 4.22 4.82295H19.78C20.0146 4.82469 20.2391 4.91793 20.405 5.08254C20.5709 5.24716 20.6649 5.46993 20.6667 5.70272V15.8432Z" fill="url(#paint0_linear_2_2048)"/>
<path d="M15.3333 8.18298H8.66667C8.48986 8.18298 8.32029 8.25267 8.19526 8.37673C8.07024 8.50078 8 8.66903 8 8.84446C8 9.0199 8.07024 9.18815 8.19526 9.3122C8.32029 9.43625 8.48986 9.50594 8.66667 9.50594H15.3333C15.5101 9.50594 15.6797 9.43625 15.8047 9.3122C15.9298 9.18815 16 9.0199 16 8.84446C16 8.66903 15.9298 8.50078 15.8047 8.37673C15.6797 8.25267 15.5101 8.18298 15.3333 8.18298Z" fill="url(#paint1_linear_2_2048)"/>
<path d="M15.3333 11.8476H8.66667C8.48986 11.8476 8.32029 11.9173 8.19526 12.0413C8.07024 12.1654 8 12.3336 8 12.5091C8 12.6845 8.07024 12.8528 8.19526 12.9768C8.32029 13.1009 8.48986 13.1706 8.66667 13.1706H15.3333C15.5101 13.1706 15.6797 13.1009 15.8047 12.9768C15.9298 12.8528 16 12.6845 16 12.5091C16 12.3336 15.9298 12.1654 15.8047 12.0413C15.6797 11.9173 15.5101 11.8476 15.3333 11.8476Z" fill="url(#paint2_linear_2_2048)"/>
<defs>
<linearGradient id="paint0_linear_2_2048" x1="3.03448" y1="4.63333" x2="23.9171" y2="10.6902" gradientUnits="userSpaceOnUse">
<stop stop-color="#6763FD"/>
<stop offset="1" stop-color="#B84EF1"/>
</linearGradient>
<linearGradient id="paint1_linear_2_2048" x1="8.41379" y1="8.27118" x2="11.2239" y2="12.4606" gradientUnits="userSpaceOnUse">
<stop stop-color="#6763FD"/>
<stop offset="1" stop-color="#B84EF1"/>
</linearGradient>
<linearGradient id="paint2_linear_2_2048" x1="8.41379" y1="11.9358" x2="11.2239" y2="16.1252" gradientUnits="userSpaceOnUse">
<stop stop-color="#6763FD"/>
<stop offset="1" stop-color="#B84EF1"/>
</linearGradient>
</defs>
</svg>
