<svg width="37" height="36" viewBox="0 0 37 36" fill="none" xmlns="http://www.w3.org/2000/svg">
<path d="M32 14.625H27.5C27.2016 14.625 26.9155 14.7435 26.7045 14.9545C26.4935 15.1655 26.375 15.4516 26.375 15.75C26.375 16.0484 26.4935 16.3345 26.7045 16.5455C26.9155 16.7565 27.2016 16.875 27.5 16.875H30.3212C30.627 16.875 30.875 17.123 30.875 17.4288V27C30.874 27.8948 30.5181 28.7527 29.8854 29.3854C29.2527 30.0181 28.3948 30.374 27.5 30.375C26.6051 30.3743 25.7471 30.0184 25.1143 29.3857C24.4816 28.7529 24.1257 27.8949 24.125 27V4.5C24.125 4.20163 24.0065 3.91548 23.7955 3.7045C23.5845 3.49353 23.2984 3.375 23 3.375H5C4.70163 3.375 4.41548 3.49353 4.2045 3.7045C3.99353 3.91548 3.875 4.20163 3.875 4.5C3.875 4.79837 3.99353 5.08452 4.2045 5.29549C4.41548 5.50647 4.70163 5.625 5 5.625H21.3212C21.627 5.625 21.875 5.87297 21.875 6.17885V27C21.8724 27.8447 22.0616 28.6739 22.4225 29.4272C22.6199 29.8394 22.3448 30.375 21.8877 30.375H9.5C8.60512 30.3743 7.74711 30.0184 7.11434 29.3857C6.48156 28.7529 6.12574 27.8949 6.125 27V9C6.125 8.70163 6.00647 8.41548 5.79549 8.2045C5.58452 7.99353 5.29837 7.875 5 7.875C4.70163 7.875 4.41548 7.99353 4.2045 8.2045C3.99353 8.41548 3.875 8.70163 3.875 9V27C3.875 28.4918 4.46763 29.9226 5.52252 30.9775C6.57742 32.0324 8.00816 32.625 9.5 32.625H27.5C28.9913 32.6232 30.421 32.03 31.4755 30.9755C32.53 29.921 33.1232 28.4913 33.125 27V15.75C33.125 15.4516 33.0065 15.1655 32.7955 14.9545C32.5845 14.7435 32.2984 14.625 32 14.625Z" fill="url(#paint0_linear_2_357)"/>
<path d="M9.5 12.375H18.5C18.7984 12.375 19.0845 12.2565 19.2955 12.0455C19.5065 11.8345 19.625 11.5484 19.625 11.25C19.625 10.9516 19.5065 10.6655 19.2955 10.4545C19.0845 10.2435 18.7984 10.125 18.5 10.125H9.5C9.20163 10.125 8.91548 10.2435 8.70451 10.4545C8.49353 10.6655 8.375 10.9516 8.375 11.25C8.375 11.5484 8.49353 11.8345 8.70451 12.0455C8.91548 12.2565 9.20163 12.375 9.5 12.375Z" fill="url(#paint1_linear_2_357)"/>
<path d="M9.5 16.875H18.5C18.7984 16.875 19.0845 16.7565 19.2955 16.5455C19.5065 16.3345 19.625 16.0484 19.625 15.75C19.625 15.4516 19.5065 15.1655 19.2955 14.9545C19.0845 14.7435 18.7984 14.625 18.5 14.625H9.5C9.20163 14.625 8.91548 14.7435 8.70451 14.9545C8.49353 15.1655 8.375 15.4516 8.375 15.75C8.375 16.0484 8.49353 16.3345 8.70451 16.5455C8.91548 16.7565 9.20163 16.875 9.5 16.875Z" fill="url(#paint2_linear_2_357)"/>
<path d="M9.5 21.375H18.5C18.7984 21.375 19.0845 21.2565 19.2955 21.0455C19.5065 20.8345 19.625 20.5484 19.625 20.25C19.625 19.9516 19.5065 19.6655 19.2955 19.4545C19.0845 19.2435 18.7984 19.125 18.5 19.125H9.5C9.20163 19.125 8.91548 19.2435 8.70451 19.4545C8.49353 19.6655 8.375 19.9516 8.375 20.25C8.375 20.5484 8.49353 20.8345 8.70451 21.0455C8.91548 21.2565 9.20163 21.375 9.5 21.375Z" fill="url(#paint3_linear_2_357)"/>
<path d="M11.75 23.625C11.4516 23.625 11.1655 23.7435 10.9545 23.9545C10.7435 24.1655 10.625 24.4516 10.625 24.75C10.625 25.0484 10.7435 25.3345 10.9545 25.5455C11.1655 25.7565 11.4516 25.875 11.75 25.875H16.25C16.5484 25.875 16.8345 25.7565 17.0455 25.5455C17.2565 25.3345 17.375 25.0484 17.375 24.75C17.375 24.4516 17.2565 24.1655 17.0455 23.9545C16.8345 23.7435 16.5484 23.625 16.25 23.625H11.75Z" fill="url(#paint4_linear_2_357)"/>
<defs>
<linearGradient id="paint0_linear_2_357" x1="5.38793" y1="5.325" x2="36.6009" y2="13.0201" gradientUnits="userSpaceOnUse">
<stop stop-color="#6763FD"/>
<stop offset="1" stop-color="#B84EF1"/>
</linearGradient>
<linearGradient id="paint1_linear_2_357" x1="8.9569" y1="10.275" x2="14.0113" y2="16.5055" gradientUnits="userSpaceOnUse">
<stop stop-color="#6763FD"/>
<stop offset="1" stop-color="#B84EF1"/>
</linearGradient>
<linearGradient id="paint2_linear_2_357" x1="8.9569" y1="14.775" x2="14.0113" y2="21.0055" gradientUnits="userSpaceOnUse">
<stop stop-color="#6763FD"/>
<stop offset="1" stop-color="#B84EF1"/>
</linearGradient>
<linearGradient id="paint3_linear_2_357" x1="8.9569" y1="19.275" x2="14.0113" y2="25.5055" gradientUnits="userSpaceOnUse">
<stop stop-color="#6763FD"/>
<stop offset="1" stop-color="#B84EF1"/>
</linearGradient>
<linearGradient id="paint4_linear_2_357" x1="10.9741" y1="23.775" x2="15.9132" y2="27.428" gradientUnits="userSpaceOnUse">
<stop stop-color="#6763FD"/>
<stop offset="1" stop-color="#B84EF1"/>
</linearGradient>
</defs>
</svg>
