<svg width="37" height="36" viewBox="0 0 37 36" fill="none" xmlns="http://www.w3.org/2000/svg">
<path fill-rule="evenodd" clip-rule="evenodd" d="M31.4375 28.125C31.7482 28.125 32 27.8732 32 27.5625V27C32 26.379 32.504 25.875 33.125 25.875C33.746 25.875 34.25 26.379 34.25 27V29.25C34.25 29.8716 33.7466 30.375 33.125 30.375H3.875C3.25344 30.375 2.75 29.8716 2.75 29.25V6.75C2.75 6.12844 3.25344 5.625 3.875 5.625H33.125C33.7466 5.625 34.25 6.12844 34.25 6.75V22.5C34.25 23.121 33.746 23.625 33.125 23.625C32.504 23.625 32 23.121 32 22.5V8.4375C32 8.12684 31.7482 7.875 31.4375 7.875H5.5625C5.25184 7.875 5 8.12684 5 8.4375V27.5625C5 27.8732 5.25184 28.125 5.5625 28.125H31.4375Z" fill="url(#paint0_linear_2_369)"/>
<path fill-rule="evenodd" clip-rule="evenodd" d="M26.6255 15.3151C26.9993 15.5642 27.5 15.2962 27.5 14.847V6.75C27.5 6.129 28.004 5.625 28.625 5.625C29.246 5.625 29.75 6.129 29.75 6.75V18C29.75 18.4151 29.5216 18.7959 29.156 18.9917C28.7898 19.1874 28.346 19.1661 28.0012 18.936L25.562 17.3102C25.3731 17.1843 25.1269 17.1843 24.938 17.3102L22.4988 18.936C22.154 19.1661 21.7102 19.1874 21.344 18.9917C20.9784 18.7959 20.75 18.4151 20.75 18V6.75C20.75 6.129 21.254 5.625 21.875 5.625C22.496 5.625 23 6.129 23 6.75V14.847C23 15.2962 23.5007 15.5642 23.8745 15.3151L24.6262 14.814C25.0036 14.562 25.4964 14.562 25.8738 14.814L26.6255 15.3151Z" fill="url(#paint1_linear_2_369)"/>
<defs>
<linearGradient id="paint0_linear_2_369" x1="4.37931" y1="7.275" x2="36.8404" y2="17.4604" gradientUnits="userSpaceOnUse">
<stop stop-color="#6763FD"/>
<stop offset="1" stop-color="#B84EF1"/>
</linearGradient>
<linearGradient id="paint1_linear_2_369" x1="21.2155" y1="6.52499" x2="31.1353" y2="8.15539" gradientUnits="userSpaceOnUse">
<stop stop-color="#6763FD"/>
<stop offset="1" stop-color="#B84EF1"/>
</linearGradient>
</defs>
</svg>
