<svg width="37" height="36" viewBox="0 0 37 36" fill="none" xmlns="http://www.w3.org/2000/svg">
<path d="M30.5454 14.9555L26.0454 10.4554C25.8332 10.2505 25.549 10.1371 25.254 10.1397C24.9591 10.1423 24.6769 10.2606 24.4683 10.4692C24.2597 10.6777 24.1414 10.9599 24.1389 11.2549C24.1363 11.5498 24.2497 11.834 24.4546 12.0462C25.4065 12.9982 24.7323 14.6258 23.3861 14.6258H11.75C11.4516 14.6258 11.1655 14.7444 10.9545 14.9553C10.7435 15.1663 10.625 15.4525 10.625 15.7508C10.625 16.0492 10.7435 16.3354 10.9545 16.5463C11.1655 16.7573 11.4516 16.8758 11.75 16.8758H29.75C29.9725 16.8758 30.1899 16.8098 30.3749 16.6862C30.5599 16.5625 30.704 16.3869 30.7891 16.1813C30.8743 15.9758 30.8965 15.7496 30.8532 15.5314C30.8098 15.3132 30.7027 15.1128 30.5454 14.9555Z" fill="url(#paint0_linear_2_352)"/>
<path d="M25.25 19.125H7.25C7.02754 19.125 6.81007 19.1911 6.62511 19.3147C6.44015 19.4383 6.296 19.614 6.21087 19.8195C6.12574 20.025 6.10346 20.2512 6.14685 20.4694C6.19024 20.6876 6.29734 20.888 6.45463 21.0454L10.9546 25.5454C11.1668 25.7503 11.451 25.8637 11.746 25.8611C12.0409 25.8586 12.3231 25.7402 12.5317 25.5317C12.7403 25.3231 12.8586 25.0409 12.8611 24.7459C12.8637 24.451 12.7503 24.1668 12.5454 23.9546C11.5935 23.0027 12.2677 21.375 13.6139 21.375H25.25C25.5484 21.375 25.8345 21.2565 26.0455 21.0455C26.2565 20.8345 26.375 20.5484 26.375 20.25C26.375 19.9516 26.2565 19.6655 26.0455 19.4545C25.8345 19.2435 25.5484 19.125 25.25 19.125Z" fill="url(#paint1_linear_2_352)"/>
<defs>
<linearGradient id="paint0_linear_2_352" x1="11.6724" y1="10.5887" x2="26.468" y2="21.554" gradientUnits="userSpaceOnUse">
<stop stop-color="#6763FD"/>
<stop offset="1" stop-color="#B84EF1"/>
</linearGradient>
<linearGradient id="paint1_linear_2_352" x1="7.17265" y1="19.5741" x2="21.9682" y2="30.5393" gradientUnits="userSpaceOnUse">
<stop stop-color="#6763FD"/>
<stop offset="1" stop-color="#B84EF1"/>
</linearGradient>
</defs>
</svg>
